Coordinates
version=1
nRows=8
nColumns=40
inDegrees=yes
endheader
time	pelvis_tilt	pelvis_list	pelvis_rotation	pelvis_tx	pelvis_ty	pelvis_tz	hip_flexion_r	hip_adduction_r	hip_rotation_r	knee_angle_r	knee_angle_r_beta	ankle_angle_r	subtalar_angle_r	mtp_angle_r	hip_flexion_l	hip_adduction_l	hip_rotation_l	knee_angle_l	knee_angle_l_beta	ankle_angle_l	subtalar_angle_l	mtp_angle_l	lumbar_extension	lumbar_bending	lumbar_rotation	arm_flex_r	arm_add_r	arm_rot_r	elbow_flex_r	pro_sup_r	wrist_flex_r	wrist_dev_r	arm_flex_l	arm_add_l	arm_rot_l	elbow_flex_l	pro_sup_l	wrist_flex_l	wrist_dev_l
1760624771.89659405	      7.11999736	     -1.57830790	      0.30255188	      0.16983807	      0.89156139	      0.00101350	     80.00000000	     -7.00000000	      0.00000000	     80.00000000	      1.39626340	      0.00000000	      0.00000000	      0.00000000	     80.00000000	     -7.00000000	      0.00000000	     80.00000000	      1.39626340	      0.00000000	      0.00000000	      0.00000000	    -15.79734843	      0.35817246	      1.75569522	      4.34931351	     -6.59661764	     13.70785001	      0.00000000	      0.00000000	    -22.36065029	    -14.93360097	      4.28272867	     -5.80422624	     18.32230247	      0.00000000	     10.61277770	    -13.41003472	     -3.76069307
1760624771.90659404	      7.12089944	     -1.57553023	      0.30264216	      0.16983223	      0.89152640	      0.00107222	     80.00000000	     -7.00000000	      0.00000000	     80.00000000	      1.39626340	      0.00000000	      0.00000000	      0.00000000	     80.00000000	     -7.00000000	      0.00000000	     80.00000000	      1.39626340	      0.00000000	      0.00000000	      0.00000000	    -15.79707105	      0.36009068	      1.75613335	      4.34924153	     -6.59620405	     13.70792322	      0.00000000	      0.00000000	    -22.36087148	    -14.93355804	      4.28176830	     -5.80400848	     18.32189233	      0.00000000	     10.61212548	    -13.41053164	     -3.76058447
1760624771.91659403	      7.12170119	     -1.57119222	      0.30344892	      0.16976936	      0.89153894	      0.00112999	     80.00000000	     -7.00000000	      0.00000000	     80.00000000	      1.39626340	      0.00000000	      0.00000000	      0.00000000	     80.00000000	     -7.00000000	      0.00000000	     80.00000000	      1.39626340	      0.00000000	      0.00000000	      0.00000000	    -15.79652301	      0.36308400	      1.75746962	      4.34979662	     -6.59526450	     13.70802674	      0.00000000	      0.00000000	    -22.36108382	    -14.93349131	      4.28032108	     -5.80396142	     18.32143862	      0.00000000	     10.61143199	    -13.41105765	     -3.76046270
1760624771.92659402	      7.12664177	     -1.55702109	      0.30787377	      0.16979812	      0.89148121	      0.00111751	     80.00000000	     -7.00000000	      0.00000000	     80.00000000	      1.39626340	      0.00000000	      0.00000000	      0.00000000	     80.00000000	     -7.00000000	      0.00000000	     80.00000000	      1.39626340	      0.00000000	      0.00000000	      0.00000000	    -15.79464576	      0.37112045	      1.76632946	      4.35192634	     -6.59352343	     13.70881147	      0.00000000	      0.00000000	    -22.36256534	    -14.93311371	      4.26884592	     -5.80809005	     18.31848866	      0.00000000	     10.60682987	    -13.41482431	     -3.75956192
1760624771.93659401	      7.12720928	     -1.55430283	      0.30890756	      0.16973073	      0.89150791	      0.00119536	     80.00000000	     -7.00000000	      0.00000000	     80.00000000	      1.39626340	      0.00000000	      0.00000000	      0.00000000	     80.00000000	     -7.00000000	      0.00000000	     80.00000000	      1.39626340	      0.00000000	      0.00000000	      0.00000000	    -15.79427401	      0.37250342	      1.76736391	      4.35193006	     -6.59434792	     13.70896404	      0.00000000	      0.00000000	    -22.36276721	    -14.93307896	      4.26742907	     -5.80836534	     18.31807933	      0.00000000	     10.60619039	    -13.41531110	     -3.75945474
1760624771.94659400	      7.13495350	     -1.54064624	      0.31309927	      0.16978251	      0.89143583	      0.00117085	     80.00000000	     -7.00000000	      0.00000000	     80.00000000	      1.39626340	      0.00000000	      0.00000000	      0.00000000	     80.00000000	     -7.00000000	      0.00000000	     80.00000000	      1.39626340	      0.00000000	      0.00000000	      0.00000000	    -15.79025131	      0.37944386	      1.77602129	      4.35301276	     -6.60281335	     13.71036586	      0.00000000	      0.00000000	    -22.36450540	    -14.93284106	      4.25784164	     -5.82145902	     18.31513250	      0.00000000	     10.60102067	    -13.41949805	     -3.75877894
1760624771.95659399	      7.13617479	     -1.53757425	      0.31384799	      0.16972205	      0.89147662	      0.00124689	     80.00000000	     -7.00000000	      0.00000000	     80.00000000	      1.39626340	      0.00000000	      0.00000000	      0.00000000	     80.00000000	     -7.00000000	      0.00000000	     80.00000000	      1.39626340	      0.00000000	      0.00000000	      0.00000000	    -15.78938926	      0.38133860	      1.77706155	      4.35256528	     -6.60481005	     13.71055489	      0.00000000	      0.00000000	    -22.36473453	    -14.93283458	      4.25625563	     -5.82310719	     18.31473847	      0.00000000	     10.60040606	    -13.41999830	     -3.75870637
1760624771.96659398	      7.14974612	     -1.52262370	      0.31848884	      0.16978430	      0.89144579	      0.00122201	     80.00000000	     -7.00000000	      0.00000000	     80.00000000	      1.39626340	      0.00000000	      0.00000000	      0.00000000	     80.00000000	     -7.00000000	      0.00000000	     80.00000000	      1.39626340	      0.00000000	      0.00000000	      0.00000000	    -15.78224035	      0.38535148	      1.78590767	      4.34890930	     -6.63118566	     13.71433589	      0.00000000	      0.00000000	    -22.36869675	    -14.93307125	      4.24596354	     -5.85669334	     18.30967065	      0.00000000	     10.59083028	    -13.42764017	     -3.75754702
